HIERARCHY
ROOT Hips
{
	OFFSET 0.000000 0.000000 0.000000
	CHANNELS 6 Xposition Yposition Zposition Zrotation Yrotation Xrotation 
	JOINT LHipJoint
	{
		OFFSET 0.000000 0.000000 0.000000
		CHANNELS 3 Zrotation Yrotation Xrotation
		JOINT LeftUpLeg
		{
			OFFSET 1.363060 -1.794630 0.839290
			CHANNELS 3 Zrotation Yrotation Xrotation
			JOINT LeftLeg
			{
				OFFSET 2.448110 -6.726130 0.000000
				CHANNELS 3 Zrotation Yrotation Xrotation
				JOINT LeftFoot
				{
					OFFSET 2.562200 -7.039590 0.000000
					CHANNELS 3 Zrotation Yrotation Xrotation
					JOINT LeftToeBase
					{
						OFFSET 0.157640 -0.433110 2.322550
						CHANNELS 3 Zrotation Yrotation Xrotation
						End Site
						{
							OFFSET 0.000000 0.000000 0.000000
						}
					}
				}
			}
		}
	}
	JOINT RHipJoint
	{
		OFFSET 0.000000 0.000000 0.000000
		CHANNELS 3 Zrotation Yrotation Xrotation
		JOINT RightUpLeg
		{
			OFFSET -1.305520 -1.794630 0.839290
			CHANNELS 3 Zrotation Yrotation Xrotation
			JOINT RightLeg
			{
				OFFSET -2.542530 -6.985550 0.000000
				CHANNELS 3 Zrotation Yrotation Xrotation
				JOINT RightFoot
				{
					OFFSET -2.568260 -7.056230 0.000000
					CHANNELS 3 Zrotation Yrotation Xrotation
					JOINT RightToeBase
					{
						OFFSET -0.164730 -0.452590 2.363150
						CHANNELS 3 Zrotation Yrotation Xrotation
						End Site
						{
							OFFSET 0.000000 0.000000 0.000000
						}
					}
				}
			}
		}
	}
}
MOTION
Frames: 24
Frame Time: 0.008333
-7.887933 16.772490 -2.154435 164.494233 87.275197 169.974669 -10.964312 5.823633 0.575730 -3.618526 9.586159 6.256037 -1.344420 2.208186 27.739402 -0.190668 -11.992373 11.615713 -3.376700 0.000000 -83.831500 8.653167 -0.612366 2.570517 15.549195 0.509916 -30.276791 2.103752 -0.208681 17.258336 -2.802400 -12.586913 -4.545936 -1.877200 0.000000 -9.935201
-7.718215 16.751548 -2.147267 169.929730 87.243805 175.431684 -11.232747 5.919790 0.591013 -2.617702 10.071178 4.842510 -1.176476 2.361623 30.514276 -0.098064 -13.179570 13.091406 -4.066800 0.000000 -84.122899 8.519901 -0.628421 2.606503 15.900050 0.940527 -30.638144 2.020490 -0.364681 19.281071 -2.951350 -12.987895 -5.494130 -1.680000 0.000000 -6.956800
-7.555349 16.730221 -2.140899 175.527989 87.224332 -178.959418 -11.534060 5.974662 0.573855 -1.591753 10.595127 3.340870 -0.996202 2.509238 33.421698 0.016528 -14.152266 14.587955 -4.763900 -0.000001 -83.481100 8.343108 -0.648548 2.631055 16.324229 1.410221 -31.008207 1.941282 -0.522702 21.373417 -3.108046 -13.384004 -6.571526 -1.431200 0.000000 -4.245900
-7.400183 16.708309 -2.134861 -178.887363 87.190818 -173.400396 -11.853846 5.978439 0.519128 -0.573076 11.124872 1.816647 -0.805856 2.652418 36.417721 0.145857 -14.755233 16.033383 -5.381900 -0.000001 -81.955000 8.132554 -0.677698 2.627230 16.809866 1.850325 -31.322169 1.870663 -0.680296 23.463432 -3.262716 -13.742907 -7.751027 -1.130500 -0.000000 -1.838800
-7.252809 16.685749 -2.129089 -173.277097 87.124535 -167.862912 -12.188249 5.926575 0.425490 0.445195 11.654607 0.292588 -0.606430 2.793614 39.481155 0.283718 -14.869256 17.355330 -5.828500 -0.000000 -79.693300 7.889423 -0.723301 2.590863 17.366196 2.230376 -31.520717 1.814683 -0.830982 25.455725 -3.412165 -14.064802 -8.990990 179.210300 -0.000001 -0.250999
-7.113135 16.662521 -2.123084 -167.873405 87.003111 -162.591866 -12.520315 5.816634 0.294318 1.449290 12.163339 -1.198763 -0.398579 2.935102 42.580619 0.425724 -14.383670 18.481267 -6.006500 0.000000 -76.862700 7.628698 -0.788908 2.515001 17.982822 2.504281 -31.562322 1.777448 -0.972637 27.284599 -3.550633 -14.334005 -10.261211 179.582400 0.000000 -2.031200
-6.980621 16.638739 -2.116190 -162.897906 86.816994 -157.813262 -12.833391 5.652720 0.130471 2.428367 12.635392 -2.640401 -0.184009 3.079693 45.686997 0.571028 -13.230802 19.335488 -5.838799 -0.000000 -73.617400 7.367420 -0.873521 2.396425 18.647780 2.638378 -31.424477 1.761210 -1.103386 28.903804 -3.673390 -14.538655 -11.532508 179.974300 0.000001 -3.518400
-6.854446 16.614567 -2.107923 -158.481293 86.569010 -153.654578 -13.117437 5.442872 -0.059223 3.375544 13.062016 -4.029708 0.034886 3.230130 48.771474 0.722902 -11.397937 19.854530 -5.291100 0.000000 -70.087200 7.117306 -0.972764 2.237434 19.347654 2.624613 -31.100005 1.765871 -1.220511 30.280532 -3.779131 -14.680605 -12.775906 -179.628101 0.000000 -4.734200
-6.733632 16.590267 -2.097175 -154.872195 86.276430 -150.359565 -13.356753 5.201236 -0.265231 4.256012 13.426448 -5.362168 0.253911 3.388805 51.798204 0.886099 -8.920869 19.978908 -4.375900 0.000000 -66.321600 6.899574 -1.075972 2.037794 20.044009 2.441008 -30.608756 1.787509 -1.323726 31.425078 -3.862827 -14.742781 -13.976024 -179.234500 0.000000 -5.715300
-6.616948 16.566157 -2.083963 -151.923287 85.953901 -147.765982 -13.559267 4.936259 -0.479294 5.076133 13.732907 -6.653713 0.470374 3.555976 54.739502 1.065618 -5.916025 19.661306 -3.170100 -0.000000 -62.325100 6.707622 -1.181044 1.809168 20.731783 2.122581 -29.968749 1.823654 -1.410761 32.332408 -3.929131 -14.748850 -15.108410 -178.858500 -0.000000 -6.500799
-6.503232 16.542719 -2.067479 -149.706104 85.625040 -145.931073 -13.719429 4.661126 -0.691192 5.802676 13.971476 -7.912875 0.680231 3.730403 57.558683 1.264035 -2.535384 18.879519 -1.790599 0.000000 -58.073300 6.552316 -1.279963 1.558934 21.372733 1.679091 -29.225065 1.868330 -1.482956 33.042508 -3.977095 -14.694963 -16.169315 -178.506100 0.000000 -7.146200
-6.391326 16.520427 -2.047634 -148.111121 85.308231 -144.726327 -13.841507 4.384458 -0.892284 6.423157 14.142601 -9.156665 0.880411 3.908584 60.223387 1.480272 1.024550 17.642448 -0.385600 -0.000001 -53.566300 6.431766 -1.370331 1.300477 21.949297 1.150649 -28.420822 1.916865 -1.541696 33.589970 -4.010791 -14.597743 -17.154931 -178.181700 -0.000000 -7.708101
-6.280292 16.499812 -2.024750 -146.959885 85.016162 -143.954867 -13.933101 4.110608 -1.076462 6.939209 14.251950 -10.400058 1.068341 4.085440 62.703513 1.708657 4.553237 15.995903 0.895099 0.000000 -48.833900 6.338217 -1.453088 1.048792 22.458895 0.593458 -27.590933 1.965906 -1.588999 34.004199 -4.036794 -14.483868 -18.063695 -177.886800 0.000000 -8.239100
-6.169232 16.481471 -1.998856 -146.202062 84.767030 -143.546103 -13.994064 3.846672 -1.236184 7.330045 14.298529 -11.658824 1.240553 4.254551 64.970616 1.939948 7.867643 14.021386 1.934700 0.000001 -43.985401 6.274023 -1.525937 0.816633 22.884506 0.048139 -26.782770 2.011116 -1.627871 34.333149 -4.058182 -14.362969 -18.906849 -177.618200 -0.000001 -8.783000
-6.057571 16.465978 -1.970556 -145.698363 84.571302 -143.344732 -14.029413 3.594178 -1.367604 7.595998 14.288487 -12.943335 1.394115 4.409172 67.003147 2.161964 10.815499 11.820471 2.660400 -0.000000 -39.149200 6.233111 -1.590656 0.616409 23.229969 -0.433759 -26.022156 2.050579 -1.660753 34.604566 -4.080286 -14.255363 -19.691005 -177.372200 0.000000 -9.365199
-5.944903 16.453772 -1.940493 -145.344740 84.439076 -143.233890 -14.042441 3.353462 -1.468788 7.736962 14.228005 -14.258811 1.525796 4.543103 68.784563 2.361662 13.292813 9.501016 3.052600 0.000000 -34.462401 6.210905 -1.648576 0.456993 23.500458 -0.811383 -25.327085 2.083356 -1.689689 34.840125 -4.106653 -14.173449 -20.424594 -177.144300 0.000000 -9.993200
-5.831194 16.445344 -1.909433 -145.028637 84.374945 -143.097360 -14.036651 3.122652 -1.540104 7.760699 14.123720 -15.599407 1.632714 4.651034 70.301742 2.526905 15.240090 7.164902 3.137500 0.000000 -30.045799 6.201650 -1.702434 0.343288 23.706755 -1.055927 -24.695281 2.110219 -1.715959 35.044102 -4.139421 -14.125456 -21.110981 -176.931299 0.000000 -10.657600
-5.716438 16.440984 -1.878024 -144.672555 84.381763 -142.857501 -14.013981 2.899853 -1.583001 7.674719 13.979841 -16.954231 1.712207 4.729027 71.544252 2.648269 16.639080 4.902586 2.974600 0.000000 -26.054700 6.201622 -1.754158 0.275664 23.857027 -1.156707 -24.116396 2.132769 -1.739929 35.211467 -4.178245 -14.109433 -21.751652 -176.731600 -0.000000 -11.335400
-5.600644 16.440907 -1.846853 -144.205761 84.458340 -142.447004 -13.976061 2.682558 -1.601455 7.490272 13.800233 -18.306961 1.762122 4.775276 72.505436 2.718822 17.498089 2.769224 2.635000 0.000000 -22.466900 6.207343 -1.805437 0.249635 23.960043 -1.118165 -23.570008 2.153779 -1.761149 35.325167 -4.220955 -14.116065 -22.344915 -176.546100 -0.000000 -11.996100
-5.484076 16.445258 -1.816356 -143.555438 84.597217 -141.805161 -13.923966 2.468315 -1.598559 7.223683 13.584817 -19.634072 1.781632 4.788337 73.177887 2.736573 17.854375 0.818773 2.196800 0.000000 -19.394500 6.216105 -1.858606 0.258054 24.025075 -0.959873 -23.023878 2.176847 -1.778319 35.355967 -4.264025 -14.132085 -22.883787 -176.378300 0.000000 -12.605700
-5.366764 16.454138 -1.786784 -142.664900 84.787726 -140.885185 -13.857880 2.255015 -1.578133 6.890744 13.331697 -20.914043 1.770779 4.768290 73.557625 2.703329 17.764497 -0.921794 1.726900 -0.000000 -16.843500 6.226702 -1.914879 0.290868 24.059119 -0.711994 -22.446907 2.205792 -1.789439 35.270719 -4.302800 -14.139388 -23.359650 -176.233600 -0.000000 -13.131300
-5.248780 16.467516 -1.758166 -141.491393 85.016604 -139.656779 -13.776657 2.041623 -1.542649 6.506139 13.036496 -22.126595 1.730953 4.715594 73.642905 2.625373 17.304794 -2.434568 1.278700 -0.000001 -14.847901 6.240155 -1.974719 0.337423 24.066767 -0.412583 -21.809129 2.244032 -1.791945 35.035840 -4.332329 -14.119286 -23.763137 -176.118000 -0.000001 -13.546100
-5.130063 16.485385 -1.730339 -140.007340 85.269496 -138.102431 -13.678076 1.828089 -1.494014 6.080983 12.694317 -23.255577 1.664684 4.631367 73.436029 2.512768 16.567221 -3.717120 0.886499 0.000000 -13.402200 6.259514 -2.037427 0.387318 24.049626 -0.101917 -21.087729 2.294227 -1.782928 34.622010 -4.347642 -14.053217 -24.085294 -176.038000 -0.000000 -13.831700
-5.010489 16.507650 -1.702984 -138.202714 85.533483 -136.221941 -13.558909 1.615925 -1.432845 5.623132 12.301023 -24.289433 1.575435 4.517217 72.943880 2.378041 15.651938 -4.781153 0.566100 -0.000000 -12.461600 6.289899 -2.101256 0.432212 24.005930 0.181699 -20.266231 2.357620 -1.759229 34.007283 -4.344480 -13.926183 -24.318668 -175.998800 0.000000 -13.981400
